<svg xmlns="http://www.w3.org/2000/svg" version="1.1" xmlns:xlink="http://www.w3.org/1999/xlink" xmlns:svgjs="http://svgjs.dev/svgjs" width="1000" height="1125" viewBox="0 0 1000 1125"><g transform="matrix(1,0,0,1,0.0011008540699322111,0)"><svg viewBox="0 0 320 360" data-background-color="#ffffff" preserveAspectRatio="xMidYMid meet" height="1125" width="1000" xmlns="http://www.w3.org/2000/svg" xmlns:xlink="http://www.w3.org/1999/xlink"><g id="tight-bounds" transform="matrix(1,0,0,1,0.00010353528136874957,0)"><svg viewBox="0 0 320 360" height="360" width="320"><g><svg></svg></g><g><svg viewBox="0 0 320 360" height="360" width="320"><g><path xmlns="http://www.w3.org/2000/svg" d="M307.925 179.999l6.575-11.387c11.322-19.607 4.604-44.679-15.003-56.001l-11.387-6.575v-13.151c0-22.639-18.354-40.994-40.994-40.994h-13.151l-6.575-11.387c-11.322-19.607-36.393-26.325-56.001-15.003l-11.39 6.572-11.387-6.576c-19.607-11.318-44.679-4.6-56.001 15.007l-6.575 11.387h-13.151c-22.639 0-40.994 18.354-40.994 40.994v13.151l-11.387 6.575c-19.607 11.322-26.325 36.393-15.003 56.001l6.572 11.387-6.576 11.387c-11.318 19.607-4.6 44.679 15.007 56l11.387 6.576v13.15c0 22.639 18.354 40.994 40.994 40.994h13.151l6.575 11.387c11.322 19.607 36.393 26.325 56.001 15.003l11.387-6.571 11.387 6.575c19.607 11.322 44.679 4.604 56-15.003l6.576-11.387h13.15c22.639 0 40.994-18.354 40.994-40.994v-13.151l11.387-6.575c19.607-11.322 26.325-36.393 15.003-56.001zM297.702 115.716c8.655 4.996 14.842 13.062 17.428 22.713 2.586 9.65 1.261 19.734-3.735 28.384l-5.538 9.596-17.747-30.74v-35.494zM251.155 271.155l-57.791 33.365h-66.731l-57.791-33.365-33.365-57.791v-66.731l33.365-57.791 57.791-33.365h66.731l57.791 33.365 33.365 57.791v66.731zM284.517 220.539v31.351l-27.151 15.676zM247.566 277.366l-15.676 27.151h-31.351zM187.15 308.106l-27.151 15.676-27.151-15.676zM119.459 304.517h-31.352l-15.676-27.151zM62.632 267.566l-27.151-15.676v-31.351zM31.891 207.15l-15.675-27.151 15.675-27.151zM35.481 139.459v-31.352l27.151-15.676zM72.431 82.632l15.676-27.151h31.352zM132.848 51.891l27.151-15.675 27.151 15.675zM200.539 55.481h31.351l15.676 27.151zM257.366 92.431l27.151 15.676v31.352zM288.106 152.848l15.676 27.151-15.676 27.151zM247.112 55.481c9.992 0 19.384 3.889 26.452 10.956 7.063 7.063 10.956 16.46 10.957 26.452v11.079l-30.741-17.747-17.747-30.74zM173.18 28.606c8.655-4.996 18.735-6.322 28.385-3.735 9.65 2.586 17.716 8.777 22.712 17.428l5.538 9.596h-35.494l-30.741-17.747zM95.716 42.295c4.996-8.655 13.062-14.842 22.713-17.428 9.65-2.586 19.734-1.261 28.384 3.736l9.596 5.537-30.74 17.747h-35.494zM35.481 92.885c0-9.992 3.889-19.384 10.956-26.452 7.063-7.063 16.46-10.956 26.452-10.956h11.079l-17.747 30.74-30.74 17.747zM8.606 166.817c-4.996-8.655-6.322-18.735-3.735-28.385 2.586-9.65 8.777-17.716 17.428-22.712l9.596-5.538v35.495l-17.747 30.74zM22.295 244.281c-8.655-4.996-14.842-13.062-17.428-22.712-2.586-9.65-1.261-19.734 3.736-28.385l5.537-9.596 17.747 30.74v35.495zM72.885 304.517c-9.992 0-19.384-3.889-26.452-10.957-7.063-7.063-10.956-16.46-10.956-26.451v-11.08l30.74 17.747 17.747 30.741zM146.817 331.391c-8.655 4.996-18.735 6.322-28.385 3.735-9.65-2.586-17.716-8.777-22.712-17.428l-5.538-9.596h35.495l30.74 17.747zM224.281 317.702c-4.996 8.655-13.062 14.842-22.712 17.428-9.65 2.586-19.734 1.261-28.385-3.735l-9.596-5.538 30.74-17.747h35.495zM284.517 267.112c0 9.992-3.889 19.384-10.957 26.452-7.063 7.063-16.46 10.956-26.451 10.957h-11.08l17.747-30.741 30.741-17.747zM315.13 221.565c-2.586 9.65-8.777 17.716-17.428 22.712l-9.596 5.538v-35.494l17.747-30.741 5.538 9.596c4.996 8.658 6.326 18.739 3.739 28.389z" fill="#7fdbff" fill-rule="nonzero" stroke="none" stroke-width="1" stroke-linecap="butt" stroke-linejoin="miter" stroke-miterlimit="10" stroke-dasharray="" stroke-dashoffset="0" font-family="none" font-weight="none" font-size="none" text-anchor="none" style="mix-blend-mode: normal" data-fill-palette-color="tertiary"></path></g><g transform="matrix(1,0,0,1,64,100.17554253709739)"><svg viewBox="0 0 192 159.64891492580523" height="159.64891492580523" width="192"><g><svg viewBox="0 0 192 159.64891492580523" height="159.64891492580523" width="192"><g><svg viewBox="0 0 192 159.64891492580523" height="159.64891492580523" width="192"><g transform="matrix(1,0,0,1,0,84.9872820801233)"><svg viewBox="0 0 192 74.66163284568192" height="74.66163284568192" width="192"><g id="textblocktransform"><svg viewBox="0 0 192 74.66163284568192" height="74.66163284568192" width="192" id="textblock"><g><svg viewBox="0 0 192 74.66163284568192" height="74.66163284568192" width="192"><g transform="matrix(1,0,0,1,0,0)"><svg width="192" viewBox="0.5 -39.25 105.94999694824219 41.20000076293945" height="74.66163284568192" data-palette-color="#7fdbff"><path d="M51.9-9.6L51.9-9.6Q51.9-6.75 49.85-4.3L49.85-4.3Q46.95-0.8 42.1 0.75L42.1 0.75Q38.5 1.9 35.1 1.9L35.1 1.9Q33.85 1.9 32.65 1.75L32.65 1.75Q24.8 0.75 19.35-1.7L19.35-1.7Q14.4 1.95 8.9 1.95L8.9 1.95Q2.4 1.95 0.85-1.65L0.85-1.65Q0.5-2.5 0.5-3.65 0.5-4.8 1.65-6.1L1.65-6.1Q3.45-8.1 6.65-8.1L6.65-8.1Q8.75-8.1 10.45-7.5 12.15-6.9 14.65-5.55 17.15-4.2 18.35-3.6L18.35-3.6Q20.55-5.75 22.9-9.58 25.25-13.4 27.03-17.07 28.8-20.75 31.55-25.25 34.3-29.75 37.15-32.9L37.15-32.9 40-36.15Q36.05-36.85 31.3-36.85 26.55-36.85 20.85-35.6L20.85-35.6Q13.05-33.95 8.85-28.9L8.85-28.9Q6.3-25.85 6.3-23.1L6.3-23.1Q6.3-19.45 9.85-18.35L9.85-18.35Q11.1-18 12.05-18 13-18 14.25-18.35 15.5-18.7 16.68-19.83 17.85-20.95 18.38-22 18.9-23.05 18.9-23.58 18.9-24.1 19.4-24.1L19.4-24.1Q19.9-24.05 19.95-23.4L19.95-23.4 19.95-23.35Q19.4-19.7 16.05-17.8L16.05-17.8Q14-16.7 11.95-16.7L11.95-16.7 9.35-17.15Q4.05-19 4.05-24.05L4.05-24.05Q4.05-27.5 7.1-30.85L7.1-30.85Q12-36.35 21.5-37.7L21.5-37.7Q26.1-38.35 31.08-38.35 36.05-38.35 41.2-37.25L41.2-37.25Q42.6-38.45 43.65-38.85 44.7-39.25 44.88-39.25 45.05-39.25 45.1-39.2L45.1-39.2Q45.4-39.2 45.23-38.88 45.05-38.55 44.13-37.95 43.2-37.35 43-36.85L43-36.85Q49.8-35.1 52.8-31.85L52.8-31.85Q54.4-30.05 54.4-28.18 54.4-26.3 53.3-24.4L53.3-24.4Q51.85-21.9 48.6-20.63 45.35-19.35 42.05-19.2L42.05-19.2Q45.25-18.2 48-16.4L48-16.4Q51.9-13.85 51.9-9.6ZM34.4 0.5L34.4 0.5Q40 0.5 43.9-2.7L43.9-2.7Q48.15-6.1 48.15-10.05L48.15-10.05Q48.15-14.15 43.8-16.25L43.8-16.25Q42.2-17 39.88-17.73 37.55-18.45 36.13-18.95 34.7-19.45 34.5-19.9L34.5-19.9Q34.5-20.85 35.95-20.9L35.95-20.9Q36.9-20.9 38.85-20.75 40.8-20.6 42.2-20.63 43.6-20.65 45.58-21.63 47.55-22.6 48.95-24.15L48.95-24.15Q51.2-26.65 51.2-28.85L51.2-28.85Q51.2-33.55 42.4-35.6L42.4-35.6Q39.75-31.95 32.9-20.18 26.05-8.4 22.35-4.4L22.35-4.4 20.45-2.6Q26.1-0.25 32.6 0.4L32.6 0.4Q33.55 0.5 34.4 0.5ZM17.25-2.65L17.25-2.65Q11.4-5.45 9.85-6 8.3-6.55 6.78-6.55 5.25-6.55 4.35-5.48 3.45-4.4 3.45-3.53 3.45-2.65 3.85-1.85L3.85-1.85Q4.95 0.4 8.45 0.4L8.45 0.4Q13.2 0.4 17.25-2.65ZM103.95-9.6L103.95-9.6Q103.95-6.75 101.9-4.3L101.9-4.3Q99-0.8 94.15 0.75L94.15 0.75Q90.55 1.9 87.15 1.9L87.15 1.9Q85.9 1.9 84.7 1.75L84.7 1.75Q76.85 0.75 71.4-1.7L71.4-1.7Q66.45 1.95 60.95 1.95L60.95 1.95Q54.45 1.95 52.9-1.65L52.9-1.65Q52.55-2.5 52.55-3.65 52.55-4.8 53.7-6.1L53.7-6.1Q55.5-8.1 58.7-8.1L58.7-8.1Q60.8-8.1 62.5-7.5 64.2-6.9 66.7-5.55 69.2-4.2 70.4-3.6L70.4-3.6Q72.6-5.75 74.95-9.58 77.3-13.4 79.07-17.07 80.85-20.75 83.6-25.25 86.35-29.75 89.2-32.9L89.2-32.9 92.05-36.15Q88.1-36.85 83.35-36.85 78.6-36.85 72.9-35.6L72.9-35.6Q65.1-33.95 60.9-28.9L60.9-28.9Q58.35-25.85 58.35-23.1L58.35-23.1Q58.35-19.45 61.9-18.35L61.9-18.35Q63.15-18 64.1-18 65.05-18 66.3-18.35 67.55-18.7 68.72-19.83 69.9-20.95 70.42-22 70.95-23.05 70.95-23.58 70.95-24.1 71.45-24.1L71.45-24.1Q71.95-24.05 72-23.4L72-23.4 72-23.35Q71.45-19.7 68.1-17.8L68.1-17.8Q66.05-16.7 64-16.7L64-16.7 61.4-17.15Q56.1-19 56.1-24.05L56.1-24.05Q56.1-27.5 59.15-30.85L59.15-30.85Q64.05-36.35 73.55-37.7L73.55-37.7Q78.15-38.35 83.12-38.35 88.1-38.35 93.25-37.25L93.25-37.25Q94.65-38.45 95.7-38.85 96.75-39.25 96.92-39.25 97.1-39.25 97.15-39.2L97.15-39.2Q97.45-39.2 97.27-38.88 97.1-38.55 96.17-37.95 95.25-37.35 95.05-36.85L95.05-36.85Q101.85-35.1 104.85-31.85L104.85-31.85Q106.45-30.05 106.45-28.18 106.45-26.3 105.35-24.4L105.35-24.4Q103.9-21.9 100.65-20.63 97.4-19.35 94.1-19.2L94.1-19.2Q97.3-18.2 100.05-16.4L100.05-16.4Q103.95-13.85 103.95-9.6ZM86.45 0.5L86.45 0.5Q92.05 0.5 95.95-2.7L95.95-2.7Q100.2-6.1 100.2-10.05L100.2-10.05Q100.2-14.15 95.85-16.25L95.85-16.25Q94.25-17 91.92-17.73 89.6-18.45 88.17-18.95 86.75-19.45 86.55-19.9L86.55-19.9Q86.55-20.85 88-20.9L88-20.9Q88.95-20.9 90.9-20.75 92.85-20.6 94.25-20.63 95.65-20.65 97.62-21.63 99.6-22.6 101-24.15L101-24.15Q103.25-26.65 103.25-28.85L103.25-28.85Q103.25-33.55 94.45-35.6L94.45-35.6Q91.8-31.95 84.95-20.18 78.1-8.4 74.4-4.4L74.4-4.4 72.5-2.6Q78.15-0.25 84.65 0.4L84.65 0.4Q85.6 0.5 86.45 0.5ZM69.3-2.65L69.3-2.65Q63.45-5.45 61.9-6 60.35-6.55 58.82-6.55 57.3-6.55 56.4-5.48 55.5-4.4 55.5-3.53 55.5-2.65 55.9-1.85L55.9-1.85Q57 0.4 60.5 0.4L60.5 0.4Q65.25 0.4 69.3-2.65Z" opacity="1" transform="matrix(1,0,0,1,0,0)" fill="#7fdbff" class="wordmark-text-0" data-fill-palette-color="primary" id="text-0"></path></svg></g></svg></g></svg></g></svg></g><g transform="matrix(1,0,0,1,36.672,0)"><svg viewBox="0 0 118.656 74.09235796875001" height="74.09235796875001" width="118.656"><g><svg xmlns="http://www.w3.org/2000/svg" xmlns:xlink="http://www.w3.org/1999/xlink" version="1.1" x="0" y="0" viewBox="0 18.788999557495117 100 62.4429931640625" enable-background="new 0 0 100 100" xml:space="preserve" height="74.09235796875001" width="118.656" class="icon-icon-0" data-fill-palette-color="accent" id="icon-0"><g fill="#7fdbff" data-fill-palette-color="accent"><g fill="#7fdbff" data-fill-palette-color="accent"><path d="M97.938 68.771h-6.316V20.81c0-1.115-0.905-2.021-2.021-2.021H10.399c-1.115 0-2.021 0.906-2.021 2.021v47.961H2.062C0.924 68.771 0 69.694 0 70.832v2.084c0 0.103 0.008 0.204 0.022 0.306 0.527 3.521 3.348 7.447 7.159 7.922 0.083 0.01 0.169 0.017 0.252 0.017l84.51 0.071h0.003c4.404 0 7.604-4.197 8.041-8.085 0.009-0.075 0.013-0.152 0.013-0.23v-2.084C100 69.694 99.076 68.771 97.938 68.771zM12.42 22.831h75.16v45.939H59.985c-0.133 0-0.262 0.016-0.386 0.04H41.16c-0.128-0.025-0.261-0.04-0.396-0.04H12.42V22.831zM91.948 77.107L7.586 77.036c-1.461-0.261-3.024-2.16-3.434-4.143h35.086c0.702 1.246 2.017 2.085 3.519 2.085h15.233c1.502 0 2.816-0.839 3.52-2.085h34.35C95.538 74.926 93.854 77.107 91.948 77.107zM38.84 37.498c-0.814-0.814-2.133-0.814-2.947 0l-8.689 8.689c-0.814 0.814-0.814 2.133 0 2.948l8.689 8.688c0.407 0.407 0.94 0.611 1.474 0.611s1.066-0.204 1.474-0.611c0.814-0.813 0.814-2.133 0-2.947l-7.216-7.215 7.216-7.216C39.654 39.631 39.654 38.312 38.84 37.498zM59.361 57.823c0.406 0.407 0.939 0.611 1.474 0.611 0.533 0 1.066-0.204 1.474-0.611l8.688-8.688c0.814-0.814 0.814-2.133 0-2.948l-8.688-8.689c-0.814-0.814-2.134-0.814-2.947 0-0.814 0.814-0.814 2.133 0 2.947l7.215 7.216-7.215 7.215C58.547 55.69 58.547 57.01 59.361 57.823zM41.793 62.275c0.299 0.148 0.617 0.22 0.931 0.22 0.765 0 1.5-0.422 1.866-1.152l12.506-25.011c0.515-1.03 0.098-2.281-0.933-2.796-1.029-0.513-2.281-0.098-2.797 0.932L40.861 59.479C40.346 60.509 40.763 61.76 41.793 62.275z" fill="#7fdbff" data-fill-palette-color="accent"></path></g></g></svg></g></svg></g><g></g></svg></g></svg></g></svg></g></svg></g><defs></defs></svg><rect width="320" height="360" fill="none" stroke="none" visibility="hidden"></rect></g></svg></g></svg>