<svg xmlns="http://www.w3.org/2000/svg" version="1.1" xmlns:xlink="http://www.w3.org/1999/xlink" xmlns:svgjs="http://svgjs.dev/svgjs" width="1500" height="1500" viewBox="0 0 1500 1500"><g transform="matrix(1,0,0,1,-0.7499999999998863,-0.7499999999998863)"><svg viewBox="0 0 280 280" data-background-color="#c56e33" preserveAspectRatio="xMidYMid meet" height="1500" width="1500" xmlns="http://www.w3.org/2000/svg" xmlns:xlink="http://www.w3.org/1999/xlink"><g id="tight-bounds" transform="matrix(1,0,0,1,0.13999999999998636,0.13999999999998636)"><svg viewBox="0 0 279.72 279.72" height="279.72" width="279.72"><g><svg viewBox="0 0 279.72 279.72" height="279.72" width="279.72"><g><svg viewBox="0 0 279.72 279.72" height="279.72" width="279.72"><g id="textblocktransform"><svg viewBox="0 0 279.72 279.72" height="279.72" width="279.72" id="textblock"><g><svg viewBox="0 0 279.72 279.72" height="279.72" width="279.72"><g transform="matrix(1,0,0,1,73.92936372216631,81.88861954923928)"><svg viewBox="0 0 131.8612725556674 115.94276090152147" height="115.94276090152147" width="131.8612725556674"><g><svg xmlns="http://www.w3.org/2000/svg" xmlns:xlink="http://www.w3.org/1999/xlink" version="1.1" x="0" y="0" viewBox="1.2929999999999995 5 61.414 54" style="enable-background:new 0 0 64 64;" xml:space="preserve" height="115.94276090152147" width="131.8612725556674" class="icon-xg-0" data-fill-palette-color="accent" id="xg-0"><path d="M20 48h24c0.553 0 1-0.448 1-1V30h4c0.416 0 0.788-0.257 0.936-0.646 0.146-0.389 0.038-0.828-0.274-1.104L44 23.255V16c0-0.552-0.447-1-1-1h-4c-0.553 0-1 0.448-1 1v1.961l-5.339-4.711c-0.377-0.333-0.945-0.333-1.322 0l-17 15c-0.312 0.275-0.421 0.715-0.274 1.104C14.212 29.743 14.584 30 15 30h4v17C19 47.552 19.447 48 20 48zM40 17h2v4.49l-2-1.765V17zM29 46v-4h2v-2h-2v-4h6v10H29zM43 46h-6V35c0-0.552-0.447-1-1-1h-8c-0.553 0-1 0.448-1 1v11h-6V30h22V46zM32 15.333l6.337 5.591c0 0 0.001 0.001 0.001 0.002l4 3.53c0.001 0.001 0.002 0.001 0.003 0.002L46.355 28H17.645L32 15.333z" fill="#e6b17e" data-fill-palette-color="accent"></path><path d="M57.293 31.293l-4 4 1.414 1.414 2.332-2.332c-0.205 5.208-2.36 10.236-6.201 14.361C45.948 53.988 39.082 57 32 57 16.971 57 7 43.758 7 35H5c0 9.786 10.519 24 27 24 7.635 0 15.034-3.244 20.302-8.901 4.173-4.482 6.514-9.961 6.735-15.648l2.256 2.256 1.414-1.414-4-4C58.316 30.902 57.684 30.902 57.293 31.293z" fill="#e6b17e" data-fill-palette-color="accent"></path><path d="M6 33c0.256 0 0.512-0.098 0.707-0.293l4-4-1.414-1.414L7.256 29.33C9.056 15.29 18.144 7 32 7c17.563 0 25 15.738 25 22h2c0-6.831-8.031-24-27-24C17.017 5 6.911 14.435 5.193 29.779l-2.486-2.486-1.414 1.414 4 4C5.488 32.902 5.744 33 6 33z" fill="#e6b17e" data-fill-palette-color="accent"></path></svg></g></svg></g><g><path d="M7.682 79.152l1.008-2.771 26.588 9.67-1.007 2.771-12.274-4.464-6.05 16.636 12.273 4.464-1.021 2.809-26.589-9.67 1.022-2.809 11.851 4.31 6.05-16.636z" fill="#2a160c" data-fill-palette-color="primary"></path><path d="M53.835 62.034c-1.365 1.526-2.944 2.591-4.736 3.196-1.788 0.6-3.607 0.706-5.46 0.317-1.857-0.393-3.559-1.281-5.104-2.665v0c-1.546-1.383-2.617-2.976-3.213-4.778-0.591-1.798-0.682-3.614-0.274-5.447 0.413-1.839 1.303-3.521 2.669-5.047v0c1.365-1.526 2.939-2.596 4.72-3.21 1.782-0.614 3.592-0.72 5.431-0.316 1.848 0.403 3.545 1.297 5.091 2.68v0c1.546 1.383 2.622 2.971 3.227 4.763 0.605 1.782 0.705 3.598 0.302 5.446-0.403 1.848-1.288 3.535-2.653 5.061zM51.934 60.333c1.007-1.125 1.654-2.363 1.94-3.713 0.291-1.355 0.19-2.706-0.304-4.052-0.494-1.345-1.344-2.558-2.55-3.637v0c-1.206-1.08-2.505-1.79-3.897-2.132-1.392-0.342-2.745-0.293-4.06 0.145-1.31 0.434-2.469 1.214-3.476 2.339v0c-1.007 1.125-1.654 2.363-1.94 3.714-0.286 1.35-0.187 2.703 0.297 4.058 0.485 1.356 1.33 2.573 2.537 3.653v0c1.206 1.08 2.51 1.785 3.911 2.117 1.401 0.332 2.756 0.281 4.066-0.153 1.31-0.434 2.469-1.214 3.476-2.339z" fill="#2a160c" data-fill-palette-color="primary"></path><path d="M90.556 11.984c2.398-1.181 4.617-1.418 6.657-0.71 2.046 0.706 3.731 2.401 5.054 5.086v0l5.447 11.056-2.572 1.267-5.325-10.809c-0.977-1.983-2.2-3.257-3.669-3.823-1.463-0.568-3.064-0.424-4.803 0.433v0c-1.983 0.977-3.241 2.355-3.775 4.135-0.54 1.782-0.281 3.748 0.778 5.895v0l4.933 10.013-2.572 1.267-5.326-10.809c-0.977-1.983-2.197-3.259-3.659-3.827-1.469-0.565-3.085-0.414-4.849 0.455v0c-1.959 0.965-3.211 2.34-3.757 4.126-0.546 1.785-0.29 3.752 0.769 5.9v0l4.933 10.013-2.581 1.271-9.397-19.073 2.471-1.218 1.713 3.478c0.106-1.493 0.608-2.851 1.507-4.075 0.898-1.224 2.132-2.222 3.7-2.994v0c1.599-0.788 3.151-1.131 4.656-1.032 1.505 0.1 2.875 0.672 4.11 1.717v0c0.082-1.603 0.607-3.086 1.573-4.449 0.966-1.363 2.294-2.461 3.984-3.293z" fill="#2a160c" data-fill-palette-color="primary"></path><path d="M137.143 21.84c1.318-0.06 2.524-0.35 3.617-0.87 1.1-0.52 2.019-1.257 2.759-2.21v0l1.695 1.781c-0.893 1.171-2.026 2.088-3.398 2.75-1.373 0.655-2.905 1.021-4.597 1.099v0c-2.181 0.1-4.142-0.277-5.884-1.131-1.734-0.854-3.111-2.078-4.131-3.672-1.02-1.601-1.577-3.438-1.671-5.51v0c-0.095-2.072 0.272-3.951 1.101-5.637 0.829-1.679 2.014-3.013 3.555-4.003 1.548-0.99 3.331-1.531 5.349-1.623v0c1.889-0.086 3.614 0.267 5.176 1.06 1.555 0.794 2.819 1.938 3.793 3.432 0.974 1.488 1.533 3.215 1.677 5.184v0l-17.295 4.181c0.616 1.701 1.653 3.012 3.111 3.933 1.458 0.914 3.172 1.326 5.143 1.236zM135.651 5.28c-1.481 0.068-2.791 0.471-3.928 1.211-1.137 0.74-2.008 1.736-2.611 2.99-0.603 1.253-0.868 2.675-0.796 4.264v0c0.019 0.408 0.046 0.703 0.082 0.885v0l14.849-3.589c-0.407-1.759-1.296-3.182-2.666-4.27-1.37-1.081-3.014-1.578-4.93-1.491z" fill="#2a160c" data-fill-palette-color="primary"></path><path d="M186.454 3.3c3.254 0.964 5.518 2.687 6.789 5.171 1.279 2.486 1.386 5.525 0.322 9.119v0l-4.786 16.161-2.866-0.849 4.762-16.083c0.85-2.87 0.782-5.252-0.203-7.147-0.985-1.895-2.756-3.221-5.313-3.978v0c-2.694-0.798-5.019-0.635-6.976 0.488-1.964 1.121-3.408 3.244-4.333 6.367v0l-4.568 15.428-2.867-0.849 8.034-27.128 2.749 0.814-1.353 4.569c2.677-2.69 6.213-3.385 10.609-2.083z" fill="#2a160c" data-fill-palette-color="primary"></path><path d="M215.685 48.87c1.04 0.812 2.145 1.375 3.313 1.691 1.174 0.32 2.351 0.359 3.533 0.116v0l0.129 2.455c-1.44 0.309-2.896 0.268-4.369-0.121-1.469-0.395-2.871-1.114-4.207-2.155v0c-1.722-1.343-2.966-2.905-3.734-4.686-0.762-1.776-1.012-3.602-0.749-5.475 0.267-1.879 1.038-3.637 2.314-5.273v0c1.276-1.636 2.777-2.825 4.502-3.566 1.722-0.736 3.489-0.979 5.304-0.729 1.82 0.255 3.526 1.003 5.119 2.246v0c1.491 1.163 2.572 2.554 3.242 4.172 0.665 1.614 0.881 3.305 0.649 5.074-0.228 1.763-0.927 3.439-2.097 5.028v0l-15.857-8.072c-0.639 1.693-0.704 3.363-0.195 5.011 0.513 1.642 1.547 3.07 3.103 4.284zM225.322 35.32c-1.169-0.912-2.426-1.457-3.772-1.634-1.345-0.178-2.654 0.013-3.927 0.572-1.273 0.56-2.399 1.467-3.378 2.722v0c-0.251 0.322-0.422 0.563-0.514 0.725v0l13.614 6.932c0.834-1.601 1.085-3.26 0.752-4.978-0.338-1.713-1.263-3.159-2.775-4.339z" fill="#2a160c" data-fill-palette-color="primary"></path><path d="M237.391 76.397c-0.972-1.428-1.695-2.932-2.168-4.51-0.472-1.588-0.646-2.962-0.523-4.124v0l2.602-0.203c-0.078 1.131 0.076 2.379 0.462 3.745 0.392 1.362 0.998 2.645 1.817 3.849v0c1.091 1.603 2.148 2.619 3.173 3.049 1.021 0.424 1.99 0.325 2.906-0.3v0c0.641-0.436 1.004-0.991 1.088-1.665 0.079-0.67-0.007-1.394-0.256-2.171-0.249-0.777-0.65-1.759-1.202-2.946v0c-0.702-1.612-1.21-2.945-1.523-3.999-0.312-1.063-0.342-2.129-0.09-3.196 0.252-1.068 0.969-2.004 2.15-2.808v0c1.468-0.999 3.085-1.203 4.853-0.612 1.773 0.587 3.402 1.971 4.887 4.153v0c0.773 1.136 1.396 2.378 1.869 3.726 0.475 1.339 0.716 2.54 0.724 3.604v0l-2.606 0.269c0.014-2.132-0.662-4.202-2.029-6.21v0c-1.029-1.513-2.073-2.473-3.131-2.879-1.055-0.401-2.018-0.305-2.89 0.287v0c-0.664 0.452-1.05 1.032-1.161 1.74-0.105 0.705-0.033 1.445 0.217 2.223 0.254 0.773 0.667 1.796 1.237 3.07v0c0.687 1.59 1.185 2.896 1.495 3.919 0.308 1.033 0.343 2.07 0.105 3.112-0.232 1.038-0.918 1.945-2.059 2.722v0c-1.535 1.045-3.189 1.232-4.962 0.562-1.778-0.666-3.44-2.135-4.985-4.407z" fill="#2a160c" data-fill-palette-color="primary"></path><path d="M256.796 109.258l-1.612 1.634c-0.64-0.345-1.208-0.846-1.704-1.5-0.502-0.653-0.895-1.384-1.178-2.193v0c-0.661-1.887-0.658-3.517 0.007-4.889 0.657-1.376 1.913-2.389 3.769-3.038v0l18.817-6.587 0.951 2.716-4.392 1.537 2.124 6.067-2.292 0.802-2.124-6.067-11.979 4.194c-1.194 0.418-2 1.028-2.419 1.83-0.418 0.802-0.432 1.762-0.04 2.879v0c0.427 1.22 1.118 2.091 2.072 2.615z" fill="#2a160c" data-fill-palette-color="primary"></path><path d="M29.062 172.7l1.938-1.118 2.147 6.876c0.472 1.513 0.654 2.928 0.545 4.244-0.111 1.31-0.567 2.45-1.369 3.42-0.804 0.964-2.037 1.705-3.699 2.224v0c-1.539 0.48-2.93 0.533-4.172 0.159-1.249-0.372-2.311-1.056-3.185-2.052-0.88-0.994-1.543-2.205-1.989-3.633v0l-1.092-3.496-9.077 2.834-0.918-2.941zM30.975 179.136l-1.082-3.467-9.554 2.983 1.07 3.428c0.454 1.454 1.253 2.463 2.398 3.024 1.147 0.568 2.434 0.63 3.862 0.184v0c1.493-0.466 2.534-1.229 3.123-2.29 0.595-1.062 0.656-2.35 0.183-3.862z" fill="#2a160c" data-fill-palette-color="primary"></path><path d="M29.186 190.203l1.554 2.556c-0.716 0.759-1.543 1.414-2.48 1.967v0c1.06 0.146 2.05 0.54 2.97 1.183 0.923 0.649 1.606 1.463 2.05 2.442v0l-2.917 0.608c-0.439-0.966-1.061-1.67-1.867-2.111-0.808-0.447-1.711-0.758-2.709-0.931v0l-9.921 4.507-1.135-2.499 10.831-4.921c0.396-0.18 0.833-0.412 1.309-0.695 0.473-0.29 0.919-0.616 1.337-0.978 0.421-0.356 0.747-0.732 0.978-1.128z" fill="#2a160c" data-fill-palette-color="primary"></path><path d="M23.038 214.49v0c-0.823-1.378-1.171-2.743-1.043-4.095 0.131-1.346 0.617-2.583 1.456-3.71 0.836-1.133 1.888-2.078 3.156-2.836v0c1.267-0.757 2.623-1.226 4.067-1.407 1.445-0.181 2.814-0.005 4.108 0.53 1.294 0.535 2.347 1.482 3.159 2.843v0c0.837 1.402 1.193 2.773 1.068 4.116-0.116 1.345-0.594 2.581-1.434 3.708-0.84 1.127-1.902 2.075-3.186 2.842v0c-1.285 0.767-2.646 1.247-4.084 1.441-1.438 0.193-2.8 0.021-4.088-0.518-1.282-0.542-2.342-1.513-3.179-2.914zM24.841 213.449v0c0.443 0.742 0.988 1.256 1.635 1.543 0.65 0.293 1.353 0.428 2.107 0.405 0.751-0.029 1.494-0.171 2.229-0.428 0.725-0.259 1.391-0.569 1.998-0.932v0c0.625-0.373 1.228-0.816 1.808-1.33 0.575-0.51 1.059-1.072 1.453-1.687 0.384-0.617 0.601-1.282 0.651-1.993 0.05-0.711-0.144-1.435-0.583-2.171v0c-0.439-0.736-0.984-1.25-1.635-1.543-0.65-0.293-1.348-0.419-2.092-0.379-0.748 0.035-1.489 0.18-2.223 0.436-0.728 0.253-1.396 0.561-2.004 0.924v0c-0.584 0.349-1.163 0.786-1.736 1.31-0.574 0.525-1.057 1.103-1.449 1.733-0.392 0.63-0.623 1.299-0.692 2.006-0.063 0.703 0.114 1.405 0.533 2.106z" fill="#2a160c" data-fill-palette-color="primary"></path><path d="M42.426 213.71l2.106 2.038c-0.165 0.359-0.369 0.697-0.613 1.014-0.233 0.318-0.483 0.61-0.749 0.876v0c0.924 0 1.82 0.193 2.687 0.578 0.866 0.395 1.595 0.961 2.187 1.699v0c0.732 0.913 1.178 1.854 1.337 2.825 0.154 0.975 0.087 1.94-0.202 2.896-0.298 0.954-0.75 1.853-1.355 2.696-0.61 0.838-1.318 1.58-2.125 2.227v0c-1.167 0.936-2.439 1.612-3.815 2.027-1.376 0.415-2.731 0.455-4.063 0.12-1.323-0.334-2.502-1.146-3.536-2.435v0c-0.468-0.584-0.837-1.239-1.105-1.965-0.278-0.727-0.391-1.465-0.337-2.214v0c-0.214 0.233-0.441 0.445-0.68 0.636-0.239 0.192-0.427 0.343-0.565 0.453v0l-3.582 2.873-1.233 1.578-1.985-2.476 14.637-11.739c0.361-0.289 0.745-0.637 1.152-1.042 0.403-0.411 0.775-0.844 1.115-1.3 0.34-0.456 0.582-0.911 0.724-1.365zM45.641 220.784v0c-0.468-0.584-1.084-0.992-1.847-1.227-0.763-0.234-1.504-0.359-2.223-0.374v0l-4.33 3.472c-0.669 0.536-1.207 1.142-1.615 1.819-0.399 0.677-0.585 1.385-0.56 2.123 0.03 0.744 0.34 1.484 0.932 2.222v0c0.536 0.669 1.133 1.114 1.791 1.336 0.658 0.222 1.337 0.275 2.036 0.158 0.699-0.107 1.382-0.337 2.05-0.689 0.662-0.348 1.278-0.75 1.846-1.205v0c0.605-0.485 1.143-1.021 1.613-1.609 0.471-0.587 0.828-1.218 1.072-1.892 0.238-0.671 0.308-1.355 0.211-2.053-0.098-0.698-0.423-1.392-0.976-2.081z" fill="#2a160c" data-fill-palette-color="primary"></path><path d="M59.144 231.53v0c0.958 0.907 1.581 1.867 1.868 2.879 0.283 1.017 0.26 2.026-0.069 3.026-0.329 1.01-0.932 1.979-1.812 2.908v0c-0.21 0.222-0.438 0.438-0.682 0.646-0.245 0.209-0.503 0.427-0.776 0.656v0l-7.586-7.184c-1.441 1.521-2.218 3.015-2.332 4.481-0.114 1.466 0.389 2.73 1.511 3.791v0c0.464 0.44 1.016 0.826 1.655 1.16 0.639 0.334 1.366 0.615 2.181 0.843v0l-0.396 1.902c-0.979-0.084-1.927-0.345-2.843-0.782-0.917-0.447-1.736-1.011-2.457-1.694v0c-1.245-1.179-1.999-2.455-2.262-3.829-0.264-1.374-0.149-2.722 0.345-4.043 0.493-1.322 1.224-2.494 2.192-3.517v0c0.758-0.8 1.606-1.468 2.544-2.003 0.933-0.54 1.919-0.904 2.958-1.091 1.039-0.177 2.065-0.128 3.078 0.147 1.013 0.276 1.974 0.844 2.883 1.704zM57.52 232.859v0c-0.543-0.514-1.165-0.818-1.865-0.909-0.705-0.087-1.41-0.015-2.116 0.216-0.701 0.226-1.332 0.541-1.894 0.947v0l5.467 5.177c0.651-0.658 1.093-1.307 1.326-1.949 0.228-0.646 0.264-1.263 0.108-1.85-0.156-0.588-0.498-1.132-1.026-1.632z" fill="#2a160c" data-fill-palette-color="primary"></path><path d="M64.927 237.216l2.583 1.508c-0.269 1.008-0.683 1.978-1.244 2.91v0c1.002-0.376 2.06-0.501 3.175-0.373 1.12 0.132 2.109 0.522 2.966 1.171v0l-2.276 1.924c-0.846-0.641-1.728-0.963-2.647-0.967-0.924-0.008-1.866 0.148-2.826 0.47v0l-6.578 8.687-2.188-1.657 7.182-9.484c0.263-0.347 0.536-0.759 0.819-1.235 0.278-0.48 0.515-0.979 0.711-1.496 0.201-0.513 0.309-0.999 0.323-1.458z" fill="#2a160c" data-fill-palette-color="primary"></path><path d="M79.105 241.339l1.721 1.059c-0.525 0.555-1.051 1.142-1.576 1.762-0.523 0.629-1.006 1.258-1.45 1.887v0l3.658 2.252-1.569 1.478-3.18-1.958-5.504 8.941c-0.221 0.359-0.372 0.702-0.452 1.027-0.087 0.322-0.065 0.619 0.063 0.89 0.135 0.275 0.399 0.533 0.793 0.775v0c0.295 0.182 0.61 0.339 0.943 0.473 0.337 0.128 0.67 0.241 1 0.34v0l-0.577 1.814c-0.551-0.156-1.07-0.311-1.557-0.468-0.487-0.156-1.003-0.402-1.548-0.737v0c-1.199-0.738-1.837-1.57-1.914-2.496-0.073-0.932 0.241-1.968 0.944-3.109v0l5.472-8.889-2.076-1.278 0.866-1.407c0.758 0.443 1.502 0.557 2.233 0.344 0.721-0.211 1.403-0.586 2.046-1.125 0.643-0.539 1.198-1.064 1.664-1.575z" fill="#2a160c" data-fill-palette-color="primary"></path><path d="M81.669 248.366l2.674 1.29c-0.159 1.441-0.319 2.878-0.481 4.31-0.165 1.438-0.342 2.909-0.53 4.411v0c-0.104 0.78-0.207 1.565-0.309 2.355-0.104 0.796-0.209 1.583-0.312 2.363v0c0.548-0.589 1.098-1.166 1.649-1.73 0.558-0.562 1.106-1.128 1.646-1.698v0c1.065-1.08 2.105-2.134 3.122-3.162 1.02-1.019 2.044-2.039 3.073-3.06v0l2.325 1.121-12.396 12.316c-0.519 0.512-1.126 1.058-1.82 1.637-0.697 0.585-1.431 1.096-2.2 1.533-0.773 0.428-1.569 0.708-2.388 0.842-0.826 0.13-1.624 0.01-2.397-0.363v0l-1.13-0.545 0.962-1.994c0.061 0.03 0.116 0.056 0.165 0.08 0.049 0.024 0.104 0.05 0.165 0.079v0c0.833 0.402 1.642 0.486 2.427 0.253 0.785-0.233 1.524-0.617 2.22-1.15 0.695-0.533 1.32-1.07 1.875-1.61v0z" fill="#2a160c" data-fill-palette-color="primary"></path><path d="M103.55 251.905l0.142-2.227 6.901 1.915c1.468 0.407 2.744 0.962 3.827 1.665 1.085 0.696 1.844 1.609 2.278 2.739 0.43 1.122 0.415 2.512-0.045 4.17v0c-0.235 0.846-0.664 1.605-1.288 2.279-0.618 0.676-1.342 1.212-2.173 1.61-0.83 0.398-1.684 0.613-2.561 0.645v0l3.433 12.812-3.431-0.952-3.098-12.073-3.982-1.105-2.889 10.412-2.959-0.821zM109.985 253.785l-3.5-0.971-2.332 8.406 2.546 0.707c1.062 0.295 2.056 0.44 2.982 0.435 0.926-0.004 1.734-0.257 2.423-0.757 0.688-0.494 1.193-1.324 1.517-2.491v0c0.253-0.911 0.237-1.72-0.047-2.427-0.284-0.707-0.745-1.308-1.384-1.803-0.637-0.502-1.372-0.868-2.205-1.099z" fill="#e6b17e" data-fill-palette-color="secondary"></path><path d="M125.256 261.945v0c1.307 0.184 2.37 0.606 3.191 1.265 0.82 0.665 1.385 1.501 1.696 2.506 0.317 1.013 0.386 2.153 0.208 3.419v0c-0.043 0.303-0.103 0.611-0.182 0.923-0.078 0.312-0.162 0.64-0.252 0.984v0l-10.345-1.46c-0.293 2.074-0.061 3.742 0.695 5.003 0.756 1.261 1.899 1.999 3.428 2.215v0c0.633 0.089 1.307 0.085 2.021-0.014 0.715-0.098 1.47-0.291 2.266-0.576v0l0.779 1.779c-0.847 0.499-1.77 0.836-2.77 1.01-1.006 0.167-2.001 0.181-2.984 0.043v0c-1.697-0.24-3.051-0.843-4.062-1.81-1.011-0.967-1.698-2.132-2.062-3.496-0.364-1.363-0.448-2.742-0.25-4.136v0c0.154-1.091 0.458-2.127 0.912-3.107 0.448-0.981 1.041-1.849 1.779-2.603 0.744-0.747 1.609-1.301 2.595-1.664 0.985-0.362 2.098-0.456 3.337-0.281zM124.702 263.969v0c-0.741-0.105-1.423 0.009-2.047 0.34-0.625 0.338-1.158 0.805-1.599 1.402-0.441 0.59-0.772 1.213-0.996 1.869v0l7.456 1.052c0.149-0.913 0.133-1.699-0.048-2.356-0.189-0.659-0.517-1.182-0.984-1.571-0.467-0.389-1.061-0.634-1.782-0.736z" fill="#e6b17e" data-fill-palette-color="secondary"></path><path d="M133.047 263.268l3.014-0.361c0.145 0.376 0.273 0.762 0.384 1.158 0.104 0.403 0.174 0.801 0.21 1.196v0c0.668-0.652 1.457-1.22 2.368-1.705 0.911-0.485 1.839-0.722 2.784-0.711v0c1.211 0.015 2.184 0.279 2.918 0.791 0.728 0.519 1.254 1.216 1.577 2.091 0.316 0.875 0.467 1.883 0.452 3.026v0l-0.134 10.967-2.704-0.033 0.124-10.08c0.008-0.68-0.034-1.351-0.129-2.012-0.087-0.661-0.322-1.208-0.704-1.641-0.382-0.433-1.012-0.655-1.89-0.666v0c-0.531-0.007-1.072 0.089-1.625 0.286-0.554 0.204-1.074 0.47-1.561 0.797-0.487 0.321-0.93 0.665-1.329 1.035v0l-0.15 12.192-2.714-0.034 0.143-11.63c0.005-0.435-0.022-0.946-0.083-1.532-0.054-0.586-0.156-1.162-0.305-1.728-0.15-0.56-0.365-1.028-0.646-1.406z" fill="#e6b17e" data-fill-palette-color="secondary"></path><path d="M159.272 278.65v0c-1.591 0.212-2.983-0.008-4.174-0.659-1.185-0.652-2.129-1.586-2.834-2.803-0.711-1.216-1.164-2.555-1.358-4.019v0c-0.195-1.463-0.09-2.894 0.313-4.292 0.404-1.399 1.107-2.587 2.109-3.565 1.002-0.977 2.289-1.571 3.859-1.78v0c1.618-0.216 3.019-0.001 4.203 0.645 1.19 0.638 2.137 1.565 2.841 2.781 0.704 1.217 1.155 2.567 1.353 4.05v0c0.198 1.483 0.101 2.923-0.289 4.321-0.39 1.397-1.087 2.581-2.09 3.551-1.004 0.964-2.315 1.554-3.933 1.77zM159.027 276.582v0c0.856-0.114 1.544-0.411 2.063-0.892 0.526-0.482 0.927-1.074 1.205-1.776 0.27-0.702 0.433-1.44 0.487-2.216 0.049-0.768 0.026-1.503-0.067-2.205v0c-0.096-0.721-0.265-1.45-0.508-2.186-0.241-0.73-0.567-1.396-0.976-2.001-0.416-0.597-0.94-1.058-1.574-1.385-0.634-0.327-1.375-0.434-2.225-0.322v0c-0.85 0.113-1.537 0.411-2.063 0.893-0.526 0.482-0.917 1.073-1.175 1.772-0.264 0.701-0.422 1.439-0.477 2.215-0.055 0.769-0.036 1.504 0.057 2.205v0c0.09 0.674 0.263 1.379 0.519 2.113 0.256 0.735 0.596 1.406 1.019 2.016 0.424 0.609 0.947 1.085 1.57 1.427 0.621 0.336 1.336 0.45 2.145 0.342z" fill="#e6b17e" data-fill-palette-color="secondary"></path><path d="M164.753 260.782l2.807-0.76 6.095 8.888c0.261 0.366 0.509 0.722 0.744 1.067 0.228 0.347 0.476 0.77 0.745 1.268v0c-0.007-0.548-0.002-1.021 0.017-1.421 0.01-0.404 0.032-0.805 0.065-1.202v0l0.784-10.888 2.482-0.672-1.332 17.569-2.423 0.656z" fill="#e6b17e" data-fill-palette-color="secondary"></path><path d="M184.955 253.96v0c1.618-0.644 3.009-0.69 4.174-0.136 1.171 0.551 2.075 1.626 2.713 3.225v0l3.043 7.639c0.171 0.43 0.369 0.688 0.594 0.774 0.227 0.093 0.451 0.095 0.672 0.007v0c0.19-0.076 0.375-0.179 0.558-0.31 0.182-0.131 0.348-0.274 0.499-0.429v0l1.216 1.426c-0.253 0.32-0.599 0.656-1.038 1.006-0.445 0.353-0.933 0.635-1.464 0.847v0c-0.531 0.211-1.07 0.254-1.618 0.129-0.548-0.126-1.031-0.567-1.449-1.323v0c-0.342 0.869-0.832 1.66-1.47 2.376-0.641 0.724-1.401 1.261-2.28 1.611v0c-1.207 0.481-2.352 0.52-3.435 0.116-1.087-0.394-1.88-1.217-2.378-2.468v0c-0.463-1.163-0.552-2.204-0.266-3.123 0.292-0.922 0.817-1.735 1.576-2.44 0.759-0.705 1.622-1.323 2.588-1.855 0.963-0.523 1.884-0.959 2.763-1.309v0l-0.65-1.63c-0.342-0.859-0.806-1.517-1.389-1.973-0.584-0.456-1.379-0.483-2.384-0.083v0c-0.777 0.31-1.461 0.761-2.052 1.356-0.591 0.594-1.129 1.328-1.615 2.203v0l-1.972-1.312c0.567-1.002 1.288-1.868 2.161-2.596 0.874-0.729 1.842-1.305 2.903-1.728zM191.138 262.699l-0.392-0.985c-0.55 0.219-1.162 0.492-1.837 0.819-0.675 0.327-1.302 0.72-1.882 1.178-0.579 0.458-0.992 0.984-1.237 1.58-0.246 0.596-0.218 1.273 0.084 2.031v0c0.269 0.676 0.698 1.08 1.285 1.213 0.581 0.135 1.219 0.064 1.914-0.213v0c0.739-0.295 1.302-0.757 1.688-1.387 0.392-0.632 0.621-1.327 0.685-2.085 0.064-0.758-0.038-1.475-0.308-2.151z" fill="#e6b17e" data-fill-palette-color="secondary"></path><path d="M193.452 245.422l1.787-0.942c0.21 0.735 0.449 1.486 0.715 2.253 0.275 0.77 0.571 1.506 0.887 2.208v0l3.8-2.002 0.474 2.103-3.304 1.741 4.895 9.288c0.197 0.373 0.415 0.677 0.654 0.912 0.233 0.238 0.499 0.371 0.798 0.398 0.305 0.024 0.662-0.072 1.071-0.287v0c0.307-0.162 0.603-0.352 0.887-0.571 0.281-0.225 0.549-0.454 0.802-0.688v0l1.267 1.419c-0.414 0.395-0.813 0.763-1.195 1.103-0.382 0.34-0.856 0.659-1.422 0.957v0c-1.246 0.656-2.287 0.782-3.122 0.377-0.839-0.411-1.571-1.209-2.197-2.395v0l-4.866-9.234-2.157 1.137-0.771-1.462c0.767-0.427 1.244-1.009 1.433-1.747 0.185-0.728 0.21-1.506 0.073-2.333-0.136-0.828-0.306-1.573-0.509-2.235z" fill="#e6b17e" data-fill-palette-color="secondary"></path><path d="M203.095 238.942v0c0.287 0.47 0.367 0.975 0.242 1.513-0.116 0.541-0.421 0.962-0.915 1.263v0c-0.465 0.283-0.967 0.355-1.507 0.214-0.536-0.135-0.948-0.438-1.235-0.908v0c-0.287-0.47-0.367-0.975-0.242-1.514 0.126-0.539 0.421-0.95 0.886-1.233v0c0.47-0.287 0.98-0.366 1.527-0.238 0.542 0.131 0.957 0.432 1.244 0.903zM202.78 245.599l2.683-1.636 8.547 14.016-2.343 1.429-7.532-12.353z" fill="#e6b17e" data-fill-palette-color="secondary"></path><path d="M224.233 250.936v0c-1.274 0.977-2.589 1.48-3.947 1.509-1.352 0.025-2.637-0.314-3.853-1.017-1.222-0.7-2.283-1.635-3.181-2.807v0c-0.898-1.171-1.521-2.464-1.868-3.877-0.347-1.414-0.33-2.794 0.051-4.141 0.381-1.347 1.201-2.503 2.458-3.468v0c1.295-0.993 2.617-1.506 3.965-1.536 1.349-0.04 2.632 0.291 3.85 0.995 1.217 0.704 2.281 1.649 3.191 2.837v0c0.911 1.187 1.545 2.484 1.903 3.89 0.358 1.406 0.344 2.779-0.041 4.12-0.39 1.336-1.232 2.501-2.528 3.495zM222.991 249.265v0c0.685-0.526 1.133-1.126 1.344-1.802 0.216-0.68 0.269-1.393 0.158-2.14-0.115-0.743-0.343-1.464-0.682-2.164-0.341-0.69-0.726-1.316-1.157-1.877v0c-0.443-0.578-0.953-1.125-1.53-1.643-0.573-0.512-1.187-0.928-1.844-1.247-0.658-0.31-1.343-0.449-2.055-0.417-0.713 0.032-1.409 0.309-2.089 0.831v0c-0.68 0.522-1.128 1.122-1.344 1.802-0.216 0.68-0.261 1.387-0.134 2.122 0.121 0.739 0.351 1.458 0.69 2.157 0.335 0.694 0.718 1.322 1.149 1.884v0c0.414 0.54 0.915 1.064 1.503 1.573 0.588 0.509 1.217 0.922 1.888 1.239 0.671 0.317 1.362 0.468 2.072 0.455 0.706-0.018 1.383-0.276 2.031-0.773z" fill="#e6b17e" data-fill-palette-color="secondary"></path><path d="M221.18 231.816l1.844-2.412c0.371 0.158 0.736 0.336 1.097 0.533 0.361 0.206 0.696 0.434 1.004 0.684v0c-0.001-0.933 0.142-1.895 0.429-2.886 0.287-0.991 0.765-1.821 1.433-2.491v0c0.855-0.857 1.723-1.371 2.602-1.54 0.88-0.16 1.746-0.05 2.598 0.328 0.847 0.384 1.675 0.979 2.484 1.787v0l7.765 7.745-1.909 1.915-7.137-7.119c-0.482-0.48-0.992-0.917-1.531-1.311-0.534-0.399-1.09-0.612-1.667-0.64-0.577-0.028-1.176 0.268-1.796 0.889v0c-0.375 0.376-0.684 0.831-0.929 1.365-0.24 0.539-0.412 1.097-0.517 1.674-0.11 0.572-0.172 1.13-0.185 1.674v0l8.632 8.611-1.917 1.921-8.235-8.214c-0.308-0.307-0.693-0.644-1.155-1.008-0.457-0.37-0.941-0.699-1.452-0.987-0.505-0.283-0.991-0.456-1.458-0.518z" fill="#e6b17e" data-fill-palette-color="secondary"></path><path d="M236.422 213.987v0c0.456-0.593 0.985-1.126 1.587-1.598 0.593-0.471 1.235-0.832 1.925-1.082v0l1.099 2.053c-0.612 0.139-1.179 0.385-1.7 0.74-0.517 0.349-0.949 0.75-1.298 1.203v0c-0.497 0.647-0.782 1.325-0.853 2.033-0.072 0.708 0.189 1.29 0.782 1.746v0c0.647 0.497 1.291 0.653 1.931 0.467 0.64-0.186 1.328-0.468 2.065-0.846v0c0.546-0.275 1.101-0.552 1.666-0.83 0.555-0.277 1.132-0.486 1.73-0.628 0.592-0.146 1.193-0.169 1.803-0.069 0.608 0.09 1.228 0.377 1.859 0.862v0c0.874 0.671 1.431 1.437 1.67 2.298 0.235 0.867 0.222 1.744-0.04 2.632-0.271 0.889-0.716 1.736-1.333 2.54v0c-0.539 0.701-1.172 1.325-1.901 1.872-0.727 0.556-1.494 0.997-2.3 1.321v0l-0.892-2.138c0.636-0.181 1.249-0.46 1.84-0.839 0.596-0.374 1.083-0.807 1.459-1.297v0c0.51-0.664 0.798-1.364 0.867-2.101 0.072-0.742-0.207-1.355-0.838-1.84v0c-0.437-0.336-0.904-0.476-1.402-0.42-0.498 0.046-1.02 0.19-1.566 0.432-0.55 0.247-1.104 0.516-1.662 0.807v0c-0.661 0.324-1.338 0.62-2.03 0.885-0.689 0.26-1.388 0.367-2.098 0.32-0.719-0.046-1.446-0.351-2.179-0.915v0c-0.836-0.642-1.363-1.402-1.58-2.281-0.212-0.874-0.19-1.78 0.065-2.715 0.265-0.937 0.706-1.808 1.324-2.612z" fill="#e6b17e" data-fill-palette-color="secondary"></path><path d="M0.528 142.362c0-6.021 4.881-10.901 10.902-10.901 6.021 0 10.901 4.881 10.901 10.901 0 6.021-4.881 10.901-10.901 10.902-6.021 0-10.901-4.881-10.902-10.902z" data-fill-palette-color="primary" fill="#2a160c"></path><path d="M257.389 142.362c0-6.021 4.881-10.901 10.901-10.901 6.021 0 10.901 4.881 10.902 10.901 0 6.021-4.881 10.901-10.902 10.902-6.021 0-10.901-4.881-10.901-10.902z" data-fill-palette-color="primary" fill="#2a160c"></path></g></svg></g></svg></g></svg></g></svg></g><defs></defs></svg><rect width="279.72" height="279.72" fill="none" stroke="none" visibility="hidden"></rect></g></svg></g></svg>